<?xml version="1.0"?>
<svg xmlns="http://www.w3.org/2000/svg" xmlns:xlink="http://www.w3.org/1999/xlink" version="1.1" id="Capa_1" x="0px" y="0px" viewBox="0 0 480 480" style="enable-background:new 0 0 480 480;" xml:space="preserve" width="512px" height="512px" class=""><g><g>
	<circle style="fill:#EC1D7F" cx="304" cy="104" r="40" data-original="#1895AA" class="" data-old_color="#ec1d7f"/>
	<path style="fill:#EC1D7F" d="M272,240l-32,48l-32,32l24,24l40-40l40-56L272,240z" data-original="#1895AA" class="" data-old_color="#ec1d7f"/>
	<path style="fill:#EC1D7F" d="M408,176v-32H280l-72,64l16,24l31.2-23.52c-6.347,16.494,1.879,35.01,18.373,41.357   c2.756,1.061,5.646,1.735,8.587,2.003L328,256v48h40v-66.48c0.108-7.9-5.567-14.697-13.36-16L320,216l8-40L408,176z" data-original="#1895AA" class="" data-old_color="#ec1d7f"/>
</g><path style="fill:#E05B69" d="M408,0v80l72-40L408,0z" data-original="#E05B69" class="active-path" data-old_color="#EE5CA0"/><g>
	<circle style="fill:#FEDD00" cx="104" cy="184" r="40" data-original="#F7D04F" class="" data-old_color="#fedd00"/>
	<path style="fill:#FEDD00" d="M72,320l-32,48L8,400l24,24l40-40l40-56L72,320z" data-original="#F7D04F" class="" data-old_color="#fedd00"/>
	<path style="fill:#FEDD00" d="M154.64,301.76L120,296l8-32h40l56-32l-16-24l-48,24l-48-8H80l-24.8,64.48   c-6.347,16.494,1.879,35.01,18.373,41.357c2.756,1.061,5.646,1.735,8.587,2.003L128,336v48h40v-66.48   C167.99,309.71,162.343,303.049,154.64,301.76z" data-original="#F7D04F" class="" data-old_color="#fedd00"/>
</g><path style="fill:#F48124" d="M0,480v-8l112-24v-64h128l72-80h168v176H0z" data-original="#EF9F35" class="" data-old_color="#f48124"/><g>
	<path style="fill:#EDECE8" d="M120,16c-4.051,0.025-8.084,0.562-12,1.6C82.332-6.701,41.825-5.592,17.524,20.076   C6.289,31.943,0.019,47.658,0,64v8h168v-8C168,37.49,146.51,16,120,16z" data-original="#F9F6ED" class="" data-old_color="#F9F6ED"/>
	<path style="fill:#EDECE8" d="M120,88h16v16h-16V88z" data-original="#F9F6ED" class="" data-old_color="#F9F6ED"/>
	<path style="fill:#EDECE8" d="M152,88h16v16h-16V88z" data-original="#F9F6ED" class="" data-old_color="#F9F6ED"/>
	<path style="fill:#EDECE8" d="M184,88h16v16h-16V88z" data-original="#F9F6ED" class="" data-old_color="#F9F6ED"/>
</g><path style="fill:#5A5A60" d="M400,0h16v232h-16V0z" data-original="#5A5A60" class=""/></g> </svg>
