<?xml version="1.0" encoding="iso-8859-1"?>
<!-- Generator: Adobe Illustrator 19.0.0, SVG Export Plug-In . SVG Version: 6.00 Build 0)  -->
<svg version="1.1" id="Layer_1" xmlns="http://www.w3.org/2000/svg" xmlns:xlink="http://www.w3.org/1999/xlink" x="0px" y="0px"
	 viewBox="0 0 495.848 495.848" style="enable-background:new 0 0 495.848 495.848;" xml:space="preserve">
<g>
	<path style="fill:#333333;" d="M457.792,183.92c0-100.128-81.432-182.624-181.52-183.904C275.488,0.008,274.72,0,273.944,0
		C187.52,0,111.984,61.56,93.8,147.184c-4.496,21.128-5.056,42.92-1.68,64.832L38.032,308.76l59.912,17.12v97.968h80v72h16v-88h-80
		v-94.032l-52.088-14.88l46.968-84l-0.472-2.784c-3.528-20.856-3.168-41.592,1.104-61.64
		c16.76-78.952,87.032-135.736,166.616-134.496C367.456,17.184,441.8,92.512,441.8,183.928l0.024,29.192
		c0.04,64.096-31.512,124.096-84.416,160.504l-3.464,2.392v119.832h16v-111.48c55.152-39.608,87.912-103.304,87.872-171.264
		L457.792,183.92z"/>
	<path style="fill:#333333;" d="M305.352,211.816c3.952,2.64,8.56,4.032,13.312,4.032h11.16c13.232,0,24-10.768,24-24
		s-10.768-24-24-24h-11.16c-4.752,0-9.36,1.392-13.312,4.032l-23.528,15.688v-35.72h-16v35.712l-23.536-15.688
		c-3.96-2.632-8.568-4.024-13.32-4.024h-11.152c-13.232,0-24,10.768-24,24s10.768,24,24,24h11.152c4.752,0,9.36-1.392,13.312-4.032
		l23.536-15.688v35.72h-72v48h10.456l24,64h91.096l24-64h10.456v-48h-72v-35.72L305.352,211.816z M314.224,185.192
		c1.32-0.88,2.856-1.344,4.44-1.344h11.16c4.416,0,8,3.584,8,8c0,4.416-3.584,8-8,8h-11.16c-1.584,0-3.12-0.464-4.44-1.344
		l-9.984-6.656L314.224,185.192z M233.408,198.504c-1.32,0.88-2.856,1.344-4.44,1.344h-11.152c-4.416,0-8-3.584-8-8
		c0-4.416,3.584-8,8-8h11.152c1.584,0,3.12,0.464,4.44,1.344l9.984,6.656L233.408,198.504z M308.272,327.848h-68.904l-18-48h104.904
		L308.272,327.848z M337.816,263.848h-128v-16h128V263.848z"/>
</g>
<path style="fill:#F9BA48;" d="M273.816,159.848l33.92-21.2c18.712-11.696,30.08-32.208,30.08-54.272v-4.528
	c0-17.672-14.328-32-32-32l0,0c-17.672,0-32,14.328-32,32l0,0l0,0c0-17.672-14.328-32-32-32l0,0c-17.672,0-32,14.328-32,32v4.528
	c0,22.064,11.368,42.576,30.08,54.272L273.816,159.848z"/>
<g>
</g>
<g>
</g>
<g>
</g>
<g>
</g>
<g>
</g>
<g>
</g>
<g>
</g>
<g>
</g>
<g>
</g>
<g>
</g>
<g>
</g>
<g>
</g>
<g>
</g>
<g>
</g>
<g>
</g>
</svg>
